<svg xmlns="http://www.w3.org/2000/svg" version="1.1" xmlns:xlink="http://www.w3.org/1999/xlink" width="512" height="512" x="0" y="0" viewBox="0 0 21 21" style="enable-background:new 0 0 512 512" xml:space="preserve" fill-rule="evenodd"><g><path fill="#000000" d="m10.514 5.35 2.682 2.222 2.682 2.222h-.006v6.669h-3.806v-2.96c0-.854-.698-1.552-1.552-1.552-.853 0-1.55.698-1.55 1.552v2.96H5.156v-6.67H5.15l2.682-2.221zm3.306-2.098c.578 0 1.05.474 1.05 1.05v1.783l3.413 2.864c.178.15.122.513-.126.808-.247.295-.595.414-.774.264L10.492 4.24 3.6 10.022c-.178.15-.527.031-.774-.264-.248-.295-.304-.659-.126-.809l7.79-6.536.002-.002 2.278 1.912v-.021c0-.578.473-1.05 1.05-1.05z" opacity="1" data-original="#00adfe"></path></g></svg>