<svg id="Layer_1" height="512" viewBox="0 0 66 66" width="512" xmlns="http://www.w3.org/2000/svg"><g><g><path d="m64 41.4c.5 0 1-.4 1-1v-6.3c0-1.2-1-2.2-2.2-2.2h-47.4c-1.2 0-2.2 1-2.2 2.2v6.3c0 .5.5 1 1 1 1.7 0 3 1.4 3 3.1s-1.4 3-3 3c-.5 0-1 .5-1 1v6.3c0 1.2 1 2.2 2.2 2.2h47.4c1.2 0 2.2-1 2.2-2.2v-6.3c0-.5-.5-1-1-1-1.7 0-3-1.4-3-3-.1-1.7 1.3-3.1 3-3.1zm-16.7 11.2h-23.9c-.6 0-1-.4-1-1s.4-1 1-1h23.9c.6 0 1 .4 1 1s-.5 1-1 1zm0-4.8h-23.9c-.6 0-1-.4-1-1s.4-1 1-1h23.9c.6 0 1 .4 1 1s-.5 1-1 1zm0-4.7h-23.9c-.6 0-1-.4-1-1s.4-1 1-1h23.9c.6 0 1 .4 1 1s-.5 1-1 1zm0-4.7h-23.9c-.6 0-1-.4-1-1s.4-1 1-1h23.9c.6 0 1 .4 1 1s-.5 1-1 1zm6.6 16.6c0 .6-.4 1-1 1s-1-.4-1-1v-1c0-.6.4-1 1-1s1 .4 1 1zm0-4c0 .6-.4 1-1 1s-1-.4-1-1v-1c0-.6.4-1 1-1s1 .4 1 1zm0-4c0 .6-.4 1-1 1s-1-.4-1-1v-1c0-.6.4-1 1-1s1 .4 1 1zm0-4c0 .6-.4 1-1 1s-1-.4-1-1v-1c0-.6.4-1 1-1s1 .4 1 1zm0-4c0 .6-.4 1-1 1s-1-.4-1-1v-1c0-.6.4-1 1-1s1 .4 1 1zm0-4c0 .6-.4 1-1 1s-1-.4-1-1v-1c0-.6.4-1 1-1s1 .4 1 1z"/></g><g><path d="m15.3 44.5c0-.6-.5-1.1-1-1.1-1.6 0-3-1.4-3-3v-6.3c0-.5.1-1 .3-1.4-.3-.1-.5-.2-.6-.5-.3-.5 0-1.1.4-1.3l21.3-10.7c.5-.3 1.1 0 1.3.4.3.5.1 1.1-.4 1.3l-16 8h6l11.1-5.6c.5-.3 1.1-.1 1.3.4.3.5 0 1.1-.4 1.3l-7.5 4h14.7s-.1-.1-.1-.1l-.5-.9c-.3-.5 0-1.1.4-1.3.5-.3 1.1 0 1.4.4l.4.9c.2.4.1.7-.1 1h12.6c.1-.4 0-.9-.2-1.3l-2.8-5.6c-.3-.5-.8-.7-1.3-.4-1.5.8-3.4.1-4.1-1.4-.8-1.5-.1-3.3 1.4-4.1.2-.1.4-.3.5-.6s.1-.5-.1-.8l-2.8-5.6c-.3-.5-.7-.9-1.3-1.1-.5-.2-1.1-.1-1.7.1l-8.9 4.5c.5-.2 1.1 0 1.4.4l.3.5c.2.5 0 1.1-.5 1.3-.5.3-1.1 0-1.3-.4l-.3-.5c-.3-.5 0-1.1.4-1.3l-33.4 16.8c-1.1.5-1.5 1.9-1 2.9l2.8 5.6c.2.5.8.7 1.3.5 1.5-.7 3.3-.1 4.1 1.4.7 1.5.1 3.3-1.3 4.1-.5.3-.7.9-.4 1.3l2.8 5.6c.2.4.4.6.8.8v-4.2c0-1.6 1.3-3 3-3 .5 0 1-.4 1-1zm26.9-20 .5.9c.3.5 0 1.1-.4 1.3-.5.3-1.1.1-1.4-.4l-.4-.9c-.3-.5-.1-1.1.4-1.3.5-.3 1.1-.1 1.3.4zm-1.8-3.6.4.9c.6 1.2-1.2 2.1-1.8.9l-.5-.9c-.3-.5 0-1.1.4-1.3.7-.3 1.3-.1 1.5.4zm-3.1-4c.5-.2 1.1 0 1.3.5l.5.9c.3.5 0 1.1-.4 1.3-.5.3-1.1 0-1.3-.4l-.4-.9c-.4-.5-.2-1.1.3-1.4z"/></g></g></svg>